<?xml version="1.0" encoding="utf-8"?>
<!-- Generator: Adobe Illustrator 16.0.3, SVG Export Plug-In . SVG Version: 6.00 Build 0)  -->
<!DOCTYPE svg PUBLIC "-//W3C//DTD SVG 1.1//EN" "http://www.w3.org/Graphics/SVG/1.1/DTD/svg11.dtd">
<svg version="1.1" xmlns="http://www.w3.org/2000/svg" xmlns:xlink="http://www.w3.org/1999/xlink" x="0px" y="0px"
	 width="283.463px" height="283.465px" viewBox="0 0 283.463 283.465" enable-background="new 0 0 283.463 283.465"
	 xml:space="preserve">
<g id="Guides_For_Artboard_1_">
</g>
<g id="Guides_For_Artboard">
</g>
<g id="Layer_1">
	<g>
		<path fill-rule="evenodd" clip-rule="evenodd" fill="#FFFFFF" d="M91.266,218.116c-50.333,0-63.8-31.776-55.16-77.028
			c8.138-42.695,38.637-75.752,85.671-75.752c18.304,0,30.497,3.313,40.159,9.151l-17.281,25.94
			c-4.321-2.556-10.671-4.84-23.128-4.84c-22.126,0-36.356,13.478-42.452,46.011c-6.109,32.032-0.519,47.026,14.989,47.026
			c3.573,0,6.113-0.764,7.629-1.267l6.604-35.335H94.569l4.832-25.172h53.129l-15.508,82.12
			C126.099,214.815,112.621,218.116,91.266,218.116z"/>
		<path fill-rule="evenodd" clip-rule="evenodd" fill="#FFFFFF" d="M152.274,217.868l5.596-29.243
			c11.693-1.008,22.116-9.656,24.911-25.153l18.305-96.099h42.72l-17.293,91.264C219.137,197.781,189.384,217.103,152.274,217.868z"
			/>
		<g>
			<path fill="#FFFFFF" d="M232.544,193.728c-6.666,0-12.069,5.403-12.069,12.07c0,6.666,5.403,12.07,12.069,12.07
				c6.667,0,12.071-5.404,12.071-12.07C244.616,199.131,239.211,193.728,232.544,193.728z M232.544,215.628
				c-5.429,0-9.83-4.401-9.83-9.83c0-5.43,4.401-9.831,9.83-9.831c5.43,0,9.831,4.401,9.831,9.831
				C242.375,211.227,237.974,215.628,232.544,215.628z"/>
			<path fill="#FFFFFF" d="M236.975,199.875c-0.516-0.189-1.236-0.285-2.163-0.285h-5.385l-2.539,12.126h2.498l1.05-5.021h1.018
				c0.59,0,1.004,0.08,1.241,0.24c0.386,0.27,0.75,0.796,1.092,1.579c0.628,1.451,1.05,2.518,1.266,3.201h2.68
				c-0.684-1.731-1.305-3.071-1.861-4.02c-0.281-0.469-0.581-0.847-0.901-1.133c1.252-0.161,2.187-0.575,2.804-1.245
				c0.618-0.67,0.927-1.521,0.927-2.552c0-0.723-0.158-1.337-0.476-1.845C237.907,200.415,237.491,200.065,236.975,199.875z
				 M235.837,203.883c-0.248,0.342-0.591,0.594-1.029,0.753c-0.438,0.16-1.328,0.24-2.668,0.24h-1.323l0.678-3.259h2.746
				c0.734,0,1.211,0.065,1.432,0.198c0.358,0.221,0.537,0.551,0.537,0.992C236.209,203.183,236.085,203.541,235.837,203.883z"/>
		</g>
	</g>
</g>
</svg>
