<?xml version="1.0" encoding="utf-8"?>
<!-- Generator: Adobe Illustrator 19.2.1, SVG Export Plug-In . SVG Version: 6.00 Build 0)  -->
<svg version="1.1" id="Слой_1" xmlns="http://www.w3.org/2000/svg" xmlns:xlink="http://www.w3.org/1999/xlink" x="0px" y="0px"
	 viewBox="0 0 1000 1000" style="enable-background:new 0 0 1000 1000;" xml:space="preserve">
<style type="text/css">
	.st0{fill:none;stroke:#F15858;stroke-width:5;stroke-linecap:round;stroke-linejoin:round;stroke-miterlimit:10;}
</style>
<path class="st0" d="M520.1,394.4l30.2-57.7c4-7.6,14-9.7,20.7-4.2v0l0,0c6.7,5.5,6.6,15.7-0.1,21.1L520.1,394.4z"/>
<ellipse transform="matrix(0.6349 -0.7726 0.7726 0.6349 -61.8292 559.1198)" class="st0" cx="560.7" cy="345" rx="7.1" ry="5"/>
<line class="st0" x1="519.1" y1="395.6" x2="503.8" y2="410.9"/>
<line class="st0" x1="503.8" y1="395.6" x2="519.1" y2="410.9"/>
<line class="st0" x1="519.1" y1="380.4" x2="503.8" y2="395.6"/>
<line class="st0" x1="503.8" y1="380.4" x2="519.1" y2="395.6"/>
<line class="st0" x1="519.1" y1="365.1" x2="503.8" y2="380.4"/>
<line class="st0" x1="503.8" y1="365.1" x2="519.1" y2="380.4"/>
<line class="st0" x1="519.1" y1="348" x2="503.8" y2="363.2"/>
<line class="st0" x1="503.8" y1="348" x2="519.1" y2="363.2"/>
<line class="st0" x1="519.1" y1="332.5" x2="503.8" y2="347.8"/>
<line class="st0" x1="503.8" y1="332.5" x2="519.1" y2="347.8"/>
<path class="st0" d="M563.6,338.7v-12.2c0-6.1,5-11.1,11.1-11.1h8.6c7.6,0,13.8,6.2,13.8,13.8v44.1c0,8.1-6.5,14.6-14.6,14.6h-4.5
	c-6.8,0-12.4,5.5-12.4,12.4v0c0,6.8,5.5,12.4,12.4,12.4H597"/>
</svg>
