<?xml version="1.0" encoding="UTF-8" standalone="no"?>
<!-- Created with Inkscape (http://www.inkscape.org/) -->
<svg id="svg2" xmlns:rdf="http://www.w3.org/1999/02/22-rdf-syntax-ns#" xmlns="http://www.w3.org/2000/svg" height="80" width="80" version="1.1" xmlns:cc="http://creativecommons.org/ns#" xmlns:dc="http://purl.org/dc/elements/1.1/" viewBox="0 0 79.999717 80.000001">
 <metadata id="metadata7">
  <rdf:RDF>
   <cc:Work rdf:about="">
    <dc:format>image/svg+xml</dc:format>
    <dc:type rdf:resource="http://purl.org/dc/dcmitype/StillImage"/>
    <dc:title/>
   </cc:Work>
  </rdf:RDF>
 </metadata>
 <g id="layer1" transform="translate(.12485 .19101)">
  <g id="g3574" transform="matrix(.28222 0 0 .28222 -.12485 -.19101)">
   <g id="Layer_1_1_">
    <rect id="rect3554" height="283.46" width="283.46" y="0" x="0" fill="#f15758"/>
    <g id="g3556" fill="#fff">
     <path id="path3558" d="m91.266 218.12c-50.333 0-63.8-31.776-55.16-77.028 8.138-42.695 38.637-75.752 85.671-75.752 18.304 0 30.497 3.313 40.159 9.151l-17.281 25.94c-4.321-2.556-10.671-4.84-23.128-4.84-22.126 0-36.356 13.478-42.452 46.011-6.109 32.032-0.519 47.026 14.989 47.026 3.573 0 6.113-0.765 7.629-1.267l6.604-35.336h-13.728l4.832-25.171h53.129l-15.508 82.12c-10.923 5.844-24.401 9.146-45.756 9.146z"/>
     <path id="path3560" d="m152.27 217.87 5.596-29.243c11.693-1.008 22.116-9.656 24.911-25.152l18.305-96.1h42.72l-17.293 91.264c-7.376 39.144-37.129 58.467-74.239 59.231z"/>
     <g id="g3562">
      <path id="path3564" d="m232.54 193.73c-6.666 0-12.069 5.402-12.069 12.069 0 6.666 5.403 12.07 12.069 12.07 6.667 0 12.071-5.404 12.071-12.07 0.001-6.667-5.404-12.069-12.071-12.069zm0 21.899c-5.429 0-9.83-4.401-9.83-9.83 0-5.43 4.401-9.831 9.83-9.831 5.43 0 9.831 4.401 9.831 9.831 0 5.429-4.401 9.83-9.831 9.83z"/>
      <path id="path3566" d="m236.98 199.88c-0.516-0.189-1.236-0.285-2.163-0.285h-5.385l-2.539 12.126h2.498l1.05-5.021h1.018c0.59 0 1.004 0.08 1.241 0.24 0.386 0.27 0.75 0.795 1.092 1.578 0.628 1.451 1.05 2.519 1.266 3.201h2.68c-0.684-1.73-1.305-3.07-1.861-4.02-0.281-0.469-0.581-0.848-0.901-1.133 1.252-0.162 2.187-0.576 2.804-1.246 0.618-0.67 0.927-1.521 0.927-2.551 0-0.724-0.158-1.338-0.476-1.846-0.319-0.503-0.735-0.854-1.251-1.043zm-1.138 4.008c-0.248 0.342-0.591 0.594-1.029 0.753-0.438 0.16-1.328 0.24-2.668 0.24h-1.323l0.678-3.259h2.746c0.734 0 1.211 0.064 1.432 0.197 0.358 0.222 0.537 0.552 0.537 0.992-0.001 0.378-0.125 0.735-0.373 1.077z"/>
     </g>
    </g>
   </g>
  </g>
 </g>
</svg>
