<?xml version="1.0" encoding="utf-8"?>
<!-- Generator: Adobe Illustrator 19.2.1, SVG Export Plug-In . SVG Version: 6.00 Build 0)  -->
<svg version="1.1" id="Слой_1" xmlns="http://www.w3.org/2000/svg" xmlns:xlink="http://www.w3.org/1999/xlink" x="0px" y="0px"
	 viewBox="0 0 1000 1000" style="enable-background:new 0 0 1000 1000;" xml:space="preserve">
<style type="text/css">
	.st0{fill:none;stroke:#F15858;stroke-width:6;stroke-linecap:round;stroke-linejoin:round;stroke-miterlimit:10;}
</style>
<path class="st0" d="M383.8,352.2l69.5,52.1c2.6,2,1.2,6.2-2.1,6.2h-67.5h-67.5c-3.3,0-4.7-4.2-2.1-6.2L383.8,352.2z"/>
<path class="st0" d="M397.2,354.7"/>
<path class="st0" d="M383.8,340.1c9.9,0,17.9-8,17.9-17.9s-8-17.9-17.9-17.9c-9.9,0-17.9,8-17.9,17.9c0,3.4,1,6.6,2.6,9.4"/>
<line class="st0" x1="383.8" y1="340.1" x2="383.8" y2="352.2"/>
<line class="st0" x1="383.8" y1="344" x2="383.8" y2="340.1"/>
<line class="st0" x1="359.2" y1="400.5" x2="408.5" y2="400.5"/>
<line class="st0" x1="359.2" y1="400.5" x2="350.9" y2="410.5"/>
<line class="st0" x1="408.5" y1="400.5" x2="416.8" y2="410.5"/>
</svg>
